<svg width="180" height="60" viewBox="0 0 346 120" fill="none" xmlns="http://www.w3.org/2000/svg">
<path d="M122.846 31.096C121.481 29.9867 120.115 29.176 118.75 28.664C117.385 28.1093 116.062 27.832 114.782 27.832C113.161 27.832 111.838 28.216 110.814 28.984C109.79 29.752 109.278 30.7547 109.278 31.992C109.278 32.8453 109.534 33.5493 110.046 34.104C110.558 34.6587 111.219 35.1493 112.03 35.576C112.883 35.96 113.822 36.3013 114.846 36.6C115.913 36.8987 116.958 37.2187 117.982 37.56C122.078 38.9253 125.065 40.76 126.942 43.064C128.862 45.3253 129.822 48.2907 129.822 51.96C129.822 54.4347 129.395 56.6747 128.542 58.68C127.731 60.6853 126.515 62.4133 124.894 63.864C123.315 65.272 121.353 66.36 119.006 67.128C116.702 67.9387 114.078 68.344 111.134 68.344C105.033 68.344 99.3793 66.5307 94.1739 62.904L99.5499 52.792C101.427 54.456 103.283 55.6933 105.118 56.504C106.953 57.3147 108.766 57.72 110.558 57.72C112.606 57.72 114.121 57.2507 115.102 56.312C116.126 55.3733 116.638 54.3067 116.638 53.112C116.638 52.3867 116.51 51.768 116.254 51.256C115.998 50.7013 115.571 50.2107 114.974 49.784C114.377 49.3147 113.587 48.888 112.606 48.504C111.667 48.12 110.515 47.6933 109.15 47.224C107.529 46.712 105.929 46.1573 104.35 45.56C102.814 44.92 101.427 44.088 100.19 43.064C98.9953 42.04 98.0139 40.76 97.2459 39.224C96.5206 37.6453 96.1579 35.6613 96.1579 33.272C96.1579 30.8827 96.5419 28.728 97.3099 26.808C98.1206 24.8453 99.2299 23.1813 100.638 21.816C102.089 20.408 103.838 19.32 105.886 18.552C107.977 17.784 110.302 17.4 112.862 17.4C115.251 17.4 117.747 17.7413 120.35 18.424C122.953 19.064 125.449 20.024 127.838 21.304L122.846 31.096ZM155.069 42.872C155.069 44.792 155.432 46.5627 156.157 48.184C156.882 49.8053 157.864 51.2133 159.101 52.408C160.338 53.6027 161.768 54.5413 163.389 55.224C165.053 55.864 166.802 56.184 168.637 56.184C170.472 56.184 172.2 55.864 173.821 55.224C175.485 54.5413 176.936 53.6027 178.173 52.408C179.453 51.2133 180.456 49.8053 181.181 48.184C181.906 46.5627 182.269 44.792 182.269 42.872C182.269 40.952 181.906 39.1813 181.181 37.56C180.456 35.9387 179.453 34.5307 178.173 33.336C176.936 32.1413 175.485 31.224 173.821 30.584C172.2 29.9013 170.472 29.56 168.637 29.56C166.802 29.56 165.053 29.9013 163.389 30.584C161.768 31.224 160.338 32.1413 159.101 33.336C157.864 34.5307 156.882 35.9387 156.157 37.56C155.432 39.1813 155.069 40.952 155.069 42.872ZM141.949 42.872C141.949 39.288 142.61 35.96 143.933 32.888C145.256 29.7733 147.09 27.064 149.437 24.76C151.784 22.456 154.578 20.664 157.821 19.384C161.106 18.0613 164.712 17.4 168.637 17.4C172.52 17.4 176.104 18.0613 179.389 19.384C182.674 20.664 185.49 22.456 187.837 24.76C190.226 27.064 192.082 29.7733 193.405 32.888C194.728 35.96 195.389 39.288 195.389 42.872C195.389 46.456 194.728 49.8053 193.405 52.92C192.082 55.992 190.226 58.68 187.837 60.984C185.49 63.288 182.674 65.1013 179.389 66.424C176.104 67.704 172.52 68.344 168.637 68.344C164.712 68.344 161.106 67.704 157.821 66.424C154.578 65.1013 151.784 63.288 149.437 60.984C147.09 58.68 145.256 55.992 143.933 52.92C142.61 49.8053 141.949 46.456 141.949 42.872ZM222.256 18.744V56.376H237.296V67H209.712V18.744H222.256Z" fill="#EF8D33"/>
<path d="M2.592 102.86C2.99733 103.649 3.59467 104.257 4.384 104.684C5.17333 105.089 6.00533 105.292 6.88 105.292C7.28533 105.292 7.69067 105.228 8.096 105.1C8.50133 104.972 8.864 104.79 9.184 104.556C9.504 104.321 9.76 104.044 9.952 103.724C10.1653 103.382 10.272 102.998 10.272 102.572C10.272 101.889 10.048 101.377 9.6 101.036C9.17333 100.694 8.64 100.428 8 100.236C7.36 100.044 6.656 99.8837 5.888 99.7557C5.12 99.6064 4.416 99.3931 3.776 99.1157C3.136 98.8171 2.592 98.4117 2.144 97.8997C1.71733 97.3877 1.504 96.6624 1.504 95.7237C1.504 94.9984 1.65333 94.3691 1.952 93.8357C2.25067 93.3024 2.63467 92.8651 3.104 92.5237C3.59467 92.1611 4.13867 91.8944 4.736 91.7237C5.33333 91.5531 5.94133 91.4677 6.56 91.4677C7.776 91.4677 8.82133 91.6917 9.696 92.1397C10.592 92.5877 11.2853 93.2917 11.776 94.2517L10.048 95.2757C9.68533 94.5931 9.22667 94.0811 8.672 93.7397C8.13867 93.3771 7.43467 93.1957 6.56 93.1957C6.21867 93.1957 5.856 93.2491 5.472 93.3557C5.10933 93.4624 4.77867 93.6117 4.48 93.8037C4.18133 93.9957 3.92533 94.2411 3.712 94.5397C3.52 94.8384 3.424 95.1797 3.424 95.5637C3.424 96.2251 3.63733 96.7157 4.064 97.0357C4.512 97.3557 5.056 97.6117 5.696 97.8037C6.336 97.9744 7.04 98.1237 7.808 98.2517C8.576 98.3797 9.28 98.5931 9.92 98.8917C10.56 99.1691 11.0933 99.5851 11.52 100.14C11.968 100.673 12.192 101.441 12.192 102.444C12.192 103.212 12.0427 103.884 11.744 104.46C11.4667 105.014 11.072 105.484 10.56 105.868C10.0693 106.252 9.504 106.54 8.864 106.732C8.224 106.924 7.552 107.02 6.848 107.02C5.568 107.02 4.39467 106.774 3.328 106.284C2.28267 105.793 1.472 105.036 0.896 104.012L2.592 102.86ZM29.881 103.852C29.1343 104.982 28.2063 105.793 27.097 106.284C26.009 106.774 24.8037 107.02 23.481 107.02C22.3503 107.02 21.3263 106.828 20.409 106.444C19.4917 106.06 18.7023 105.526 18.041 104.844C17.3797 104.14 16.8677 103.318 16.505 102.38C16.1637 101.42 15.993 100.364 15.993 99.2117C15.993 98.1024 16.1743 97.0784 16.537 96.1397C16.8997 95.2011 17.4117 94.3904 18.073 93.7077C18.7343 93.0037 19.513 92.4597 20.409 92.0757C21.305 91.6704 22.297 91.4677 23.385 91.4677C24.5157 91.4677 25.5077 91.6704 26.361 92.0757C27.2357 92.4597 27.961 92.9824 28.537 93.6437C29.1343 94.2837 29.5823 95.0197 29.881 95.8517C30.1797 96.6837 30.329 97.5264 30.329 98.3797V99.7237H17.913C17.913 100.129 17.9877 100.652 18.137 101.292C18.3077 101.91 18.6063 102.518 19.033 103.116C19.4597 103.713 20.025 104.225 20.729 104.652C21.4543 105.078 22.3823 105.292 23.513 105.292C24.4943 105.292 25.4437 105.057 26.361 104.588C27.2783 104.118 27.9823 103.478 28.473 102.668L29.881 103.852ZM28.409 97.9957C28.409 97.3344 28.2703 96.7157 27.993 96.1397C27.737 95.5637 27.3743 95.0624 26.905 94.6357C26.457 94.1877 25.913 93.8357 25.273 93.5797C24.6543 93.3237 23.993 93.1957 23.289 93.1957C22.2437 93.1957 21.369 93.4091 20.665 93.8357C19.9823 94.2624 19.4383 94.7531 19.033 95.3077C18.6277 95.8624 18.3397 96.4064 18.169 96.9397C17.9983 97.4517 17.913 97.8037 17.913 97.9957H28.409ZM35.2462 96.0117C35.2462 95.7344 35.2356 95.4037 35.2142 95.0197C35.1929 94.6144 35.1716 94.2091 35.1502 93.8037C35.1502 93.3984 35.1396 93.0251 35.1182 92.6837C35.0969 92.3211 35.0862 92.0437 35.0862 91.8517H37.0062C37.0276 92.4064 37.0382 92.9397 37.0382 93.4517C37.0596 93.9637 37.0916 94.2944 37.1342 94.4437C37.6249 93.5691 38.2542 92.8544 39.0222 92.2997C39.7902 91.7451 40.7289 91.4677 41.8382 91.4677C42.0302 91.4677 42.2116 91.4891 42.3822 91.5317C42.5742 91.5531 42.7662 91.5851 42.9582 91.6277L42.7342 93.5157C42.4782 93.4304 42.2329 93.3877 41.9982 93.3877C41.1662 93.3877 40.4409 93.5264 39.8222 93.8037C39.2249 94.0597 38.7236 94.4224 38.3182 94.8917C37.9342 95.3611 37.6462 95.9157 37.4542 96.5557C37.2622 97.1744 37.1662 97.8464 37.1662 98.5717V106.636H35.2462V96.0117ZM44.4625 91.8517H46.6385L51.5665 104.556L56.3665 91.8517H58.3185L52.4945 106.636H50.5105L44.4625 91.8517ZM62.315 91.8517H64.235V106.636H62.315V91.8517ZM61.835 85.9957C61.835 85.5904 61.9737 85.2491 62.251 84.9717C62.5283 84.6944 62.8697 84.5557 63.275 84.5557C63.6803 84.5557 64.0217 84.6944 64.299 84.9717C64.5763 85.2491 64.715 85.5904 64.715 85.9957C64.715 86.4011 64.5763 86.7424 64.299 87.0197C64.0217 87.2971 63.6803 87.4357 63.275 87.4357C62.8697 87.4357 62.5283 87.2971 62.251 87.0197C61.9737 86.7424 61.835 86.4011 61.835 85.9957ZM82.7065 104.46C81.9812 105.334 81.1598 105.985 80.2425 106.412C79.3252 106.817 78.3332 107.02 77.2665 107.02C77.0745 107.02 76.9252 107.009 76.8185 106.988L75.6025 108.684L75.6665 108.748C75.9438 108.598 76.2745 108.524 76.6585 108.524C77.3412 108.524 77.9492 108.716 78.4825 109.1C79.0372 109.484 79.3145 110.06 79.3145 110.828C79.3145 111.318 79.2078 111.734 78.9945 112.076C78.7812 112.417 78.4932 112.694 78.1305 112.908C77.7892 113.121 77.4052 113.281 76.9785 113.388C76.5518 113.494 76.1358 113.548 75.7305 113.548C74.6638 113.548 73.6505 113.324 72.6905 112.876L73.1385 111.852C73.8425 112.214 74.6532 112.396 75.5705 112.396C75.7838 112.396 76.0078 112.364 76.2425 112.3C76.4772 112.257 76.6905 112.182 76.8825 112.076C77.0958 111.969 77.2665 111.83 77.3945 111.66C77.5225 111.489 77.5865 111.276 77.5865 111.02C77.5865 110.529 77.3945 110.177 77.0105 109.964C76.6265 109.772 76.2212 109.676 75.7945 109.676C75.3038 109.676 74.8345 109.761 74.3865 109.932L73.8745 109.452L75.6985 106.86C74.7812 106.71 73.9385 106.422 73.1705 105.996C72.4025 105.548 71.7412 104.993 71.1865 104.332C70.6532 103.67 70.2372 102.913 69.9385 102.06C69.6398 101.185 69.4905 100.246 69.4905 99.2437C69.4905 98.1131 69.6825 97.0784 70.0665 96.1397C70.4505 95.1797 70.9838 94.3584 71.6665 93.6757C72.3492 92.9717 73.1705 92.4277 74.1305 92.0437C75.0905 91.6597 76.1358 91.4677 77.2665 91.4677C78.3545 91.4677 79.3572 91.6917 80.2745 92.1397C81.2132 92.5877 82.0452 93.2171 82.7705 94.0277L81.2345 95.1797C80.6798 94.5611 80.0718 94.0811 79.4105 93.7397C78.7492 93.3771 78.0345 93.1957 77.2665 93.1957C76.3705 93.1957 75.5598 93.3557 74.8345 93.6757C74.1092 93.9957 73.4905 94.4331 72.9785 94.9877C72.4665 95.5211 72.0718 96.1611 71.7945 96.9077C71.5385 97.6331 71.4105 98.4117 71.4105 99.2437C71.4105 100.076 71.5385 100.865 71.7945 101.612C72.0718 102.337 72.4665 102.977 72.9785 103.532C73.4905 104.065 74.1092 104.492 74.8345 104.812C75.5598 105.132 76.3705 105.292 77.2665 105.292C78.0772 105.292 78.8132 105.11 79.4745 104.748C80.1572 104.364 80.7438 103.862 81.2345 103.244L82.7065 104.46ZM85.5367 99.2437C85.5367 98.1131 85.7287 97.0784 86.1127 96.1397C86.4967 95.1797 87.0301 94.3584 87.7127 93.6757C88.3954 92.9717 89.2167 92.4277 90.1767 92.0437C91.1367 91.6597 92.1821 91.4677 93.3127 91.4677C94.4434 91.4677 95.4781 91.6597 96.4167 92.0437C97.3767 92.4277 98.1981 92.9717 98.8807 93.6757C99.5847 94.3584 100.129 95.1797 100.513 96.1397C100.897 97.0784 101.089 98.1131 101.089 99.2437C101.089 100.374 100.897 101.42 100.513 102.38C100.129 103.318 99.5847 104.14 98.8807 104.844C98.1981 105.526 97.3767 106.06 96.4167 106.444C95.4781 106.828 94.4434 107.02 93.3127 107.02C92.1821 107.02 91.1367 106.828 90.1767 106.444C89.2167 106.06 88.3954 105.526 87.7127 104.844C87.0301 104.14 86.4967 103.318 86.1127 102.38C85.7287 101.42 85.5367 100.374 85.5367 99.2437ZM87.4567 99.2437C87.4567 100.076 87.5847 100.865 87.8407 101.612C88.1181 102.337 88.5127 102.977 89.0247 103.532C89.5367 104.065 90.1554 104.492 90.8807 104.812C91.6061 105.132 92.4167 105.292 93.3127 105.292C94.2087 105.292 95.0194 105.132 95.7447 104.812C96.4701 104.492 97.0887 104.065 97.6007 103.532C98.1127 102.977 98.4967 102.337 98.7527 101.612C99.0301 100.865 99.1687 100.076 99.1687 99.2437C99.1687 98.4117 99.0301 97.6331 98.7527 96.9077C98.4967 96.1611 98.1127 95.5211 97.6007 94.9877C97.0887 94.4331 96.4701 93.9957 95.7447 93.6757C95.0194 93.3557 94.2087 93.1957 93.3127 93.1957C92.4167 93.1957 91.6061 93.3557 90.8807 93.6757C90.1554 93.9957 89.5367 94.4331 89.0247 94.9877C88.5127 95.5211 88.1181 96.1611 87.8407 96.9077C87.5847 97.6331 87.4567 98.4117 87.4567 99.2437ZM106.041 102.86C106.446 103.649 107.043 104.257 107.833 104.684C108.622 105.089 109.454 105.292 110.329 105.292C110.734 105.292 111.139 105.228 111.545 105.1C111.95 104.972 112.313 104.79 112.633 104.556C112.953 104.321 113.209 104.044 113.401 103.724C113.614 103.382 113.721 102.998 113.721 102.572C113.721 101.889 113.497 101.377 113.049 101.036C112.622 100.694 112.089 100.428 111.449 100.236C110.809 100.044 110.105 99.8837 109.337 99.7557C108.569 99.6064 107.865 99.3931 107.225 99.1157C106.585 98.8171 106.041 98.4117 105.593 97.8997C105.166 97.3877 104.953 96.6624 104.953 95.7237C104.953 94.9984 105.102 94.3691 105.401 93.8357C105.699 93.3024 106.083 92.8651 106.553 92.5237C107.043 92.1611 107.587 91.8944 108.185 91.7237C108.782 91.5531 109.39 91.4677 110.009 91.4677C111.225 91.4677 112.27 91.6917 113.145 92.1397C114.041 92.5877 114.734 93.2917 115.225 94.2517L113.497 95.2757C113.134 94.5931 112.675 94.0811 112.121 93.7397C111.587 93.3771 110.883 93.1957 110.009 93.1957C109.667 93.1957 109.305 93.2491 108.921 93.3557C108.558 93.4624 108.227 93.6117 107.929 93.8037C107.63 93.9957 107.374 94.2411 107.161 94.5397C106.969 94.8384 106.873 95.1797 106.873 95.5637C106.873 96.2251 107.086 96.7157 107.513 97.0357C107.961 97.3557 108.505 97.6117 109.145 97.8037C109.785 97.9744 110.489 98.1237 111.257 98.2517C112.025 98.3797 112.729 98.5931 113.369 98.8917C114.009 99.1691 114.542 99.5851 114.969 100.14C115.417 100.673 115.641 101.441 115.641 102.444C115.641 103.212 115.491 103.884 115.193 104.46C114.915 105.014 114.521 105.484 114.009 105.868C113.518 106.252 112.953 106.54 112.313 106.732C111.673 106.924 111.001 107.02 110.297 107.02C109.017 107.02 107.843 106.774 106.777 106.284C105.731 105.793 104.921 105.036 104.345 104.012L106.041 102.86ZM142.282 103.852C141.536 104.982 140.608 105.793 139.498 106.284C138.41 106.774 137.205 107.02 135.882 107.02C134.752 107.02 133.728 106.828 132.81 106.444C131.893 106.06 131.104 105.526 130.442 104.844C129.781 104.14 129.269 103.318 128.906 102.38C128.565 101.42 128.394 100.364 128.394 99.2117C128.394 98.1024 128.576 97.0784 128.938 96.1397C129.301 95.2011 129.813 94.3904 130.474 93.7077C131.136 93.0037 131.914 92.4597 132.81 92.0757C133.706 91.6704 134.698 91.4677 135.786 91.4677C136.917 91.4677 137.909 91.6704 138.762 92.0757C139.637 92.4597 140.362 92.9824 140.938 93.6437C141.536 94.2837 141.984 95.0197 142.282 95.8517C142.581 96.6837 142.73 97.5264 142.73 98.3797V99.7237H130.314C130.314 100.129 130.389 100.652 130.538 101.292C130.709 101.91 131.008 102.518 131.434 103.116C131.861 103.713 132.426 104.225 133.13 104.652C133.856 105.078 134.784 105.292 135.914 105.292C136.896 105.292 137.845 105.057 138.762 104.588C139.68 104.118 140.384 103.478 140.874 102.668L142.282 103.852ZM140.81 97.9957C140.81 97.3344 140.672 96.7157 140.394 96.1397C140.138 95.5637 139.776 95.0624 139.306 94.6357C138.858 94.1877 138.314 93.8357 137.674 93.5797C137.056 93.3237 136.394 93.1957 135.69 93.1957C134.645 93.1957 133.77 93.4091 133.066 93.8357C132.384 94.2624 131.84 94.7531 131.434 95.3077C131.029 95.8624 130.741 96.4064 130.57 96.9397C130.4 97.4517 130.314 97.8037 130.314 97.9957H140.81ZM163.832 93.5797H159.608V103.212C159.608 103.873 159.789 104.385 160.152 104.748C160.515 105.11 161.016 105.292 161.656 105.292C162.019 105.292 162.381 105.249 162.744 105.164C163.128 105.057 163.491 104.929 163.832 104.78L163.992 106.508C163.629 106.636 163.213 106.753 162.744 106.86C162.275 106.966 161.859 107.02 161.496 107.02C160.813 107.02 160.227 106.913 159.736 106.7C159.245 106.508 158.851 106.241 158.552 105.9C158.253 105.558 158.029 105.164 157.88 104.716C157.752 104.246 157.688 103.745 157.688 103.212V93.5797H154.488V91.8517H157.688V87.5957H159.608V91.8517H163.832V93.5797ZM167.896 96.0117C167.896 95.7344 167.886 95.4037 167.864 95.0197C167.843 94.6144 167.822 94.2091 167.8 93.8037C167.8 93.3984 167.79 93.0251 167.768 92.6837C167.747 92.3211 167.736 92.0437 167.736 91.8517H169.656C169.678 92.4064 169.688 92.9397 169.688 93.4517C169.71 93.9637 169.742 94.2944 169.784 94.4437C170.275 93.5691 170.904 92.8544 171.672 92.2997C172.44 91.7451 173.379 91.4677 174.488 91.4677C174.68 91.4677 174.862 91.4891 175.032 91.5317C175.224 91.5531 175.416 91.5851 175.608 91.6277L175.384 93.5157C175.128 93.4304 174.883 93.3877 174.648 93.3877C173.816 93.3877 173.091 93.5264 172.472 93.8037C171.875 94.0597 171.374 94.4224 170.968 94.8917C170.584 95.3611 170.296 95.9157 170.104 96.5557C169.912 97.1744 169.816 97.8464 169.816 98.5717V106.636H167.896V96.0117ZM190.681 100.428C190.681 101.153 190.681 101.804 190.681 102.38C190.702 102.956 190.723 103.489 190.745 103.98C190.766 104.47 190.787 104.929 190.809 105.356C190.851 105.782 190.905 106.209 190.969 106.636H189.177C189.049 105.91 188.985 105.11 188.985 104.236H188.921C188.366 105.196 187.673 105.9 186.841 106.348C186.03 106.796 184.995 107.02 183.737 107.02C183.097 107.02 182.467 106.934 181.849 106.764C181.23 106.614 180.675 106.369 180.185 106.028C179.694 105.665 179.289 105.206 178.969 104.652C178.67 104.097 178.521 103.425 178.521 102.636C178.521 101.505 178.809 100.609 179.385 99.9477C179.961 99.2864 180.665 98.7957 181.497 98.4757C182.35 98.1344 183.246 97.9211 184.185 97.8357C185.145 97.7291 185.987 97.6757 186.713 97.6757H188.953V96.7797C188.953 95.4997 188.558 94.5824 187.769 94.0277C186.979 93.4731 185.987 93.1957 184.793 93.1957C183.086 93.1957 181.582 93.7504 180.281 94.8597L179.161 93.5477C179.865 92.8651 180.739 92.3531 181.785 92.0117C182.83 91.6491 183.833 91.4677 184.793 91.4677C186.585 91.4677 188.014 91.8944 189.081 92.7477C190.147 93.5797 190.681 94.9344 190.681 96.8117V100.428ZM186.841 99.2117C186.03 99.2117 185.241 99.2651 184.473 99.3717C183.726 99.4784 183.043 99.6597 182.425 99.9157C181.827 100.172 181.347 100.513 180.985 100.94C180.622 101.366 180.441 101.9 180.441 102.54C180.441 102.988 180.537 103.393 180.729 103.756C180.942 104.097 181.209 104.385 181.529 104.62C181.849 104.833 182.201 105.004 182.585 105.132C182.99 105.238 183.395 105.292 183.801 105.292C184.825 105.292 185.667 105.142 186.329 104.844C186.99 104.545 187.513 104.161 187.897 103.692C188.302 103.201 188.579 102.657 188.729 102.06C188.878 101.441 188.953 100.822 188.953 100.204V99.2117H186.841ZM196.426 96.0117C196.426 95.7344 196.416 95.4037 196.394 95.0197C196.373 94.6144 196.352 94.2091 196.33 93.8037C196.33 93.3984 196.32 93.0251 196.298 92.6837C196.277 92.3211 196.266 92.0437 196.266 91.8517H198.186C198.208 92.4064 198.218 92.9397 198.218 93.4517C198.24 93.9637 198.272 94.2944 198.314 94.4437H198.41C198.794 93.6331 199.434 92.9397 200.33 92.3637C201.226 91.7664 202.272 91.4677 203.466 91.4677C204.618 91.4677 205.557 91.6491 206.282 92.0117C207.008 92.3744 207.573 92.8544 207.978 93.4517C208.405 94.0277 208.693 94.6997 208.842 95.4677C209.013 96.2357 209.098 97.0251 209.098 97.8357V106.636H207.178V97.9317C207.178 97.3344 207.125 96.7584 207.018 96.2037C206.912 95.6277 206.72 95.1157 206.442 94.6677C206.186 94.2197 205.813 93.8677 205.322 93.6117C204.853 93.3344 204.234 93.1957 203.466 93.1957C202.762 93.1957 202.09 93.3237 201.45 93.5797C200.832 93.8144 200.288 94.1877 199.818 94.6997C199.37 95.1904 199.008 95.8197 198.73 96.5877C198.474 97.3344 198.346 98.2197 198.346 99.2437V106.636H196.426V96.0117ZM214.88 102.86C215.285 103.649 215.882 104.257 216.672 104.684C217.461 105.089 218.293 105.292 219.168 105.292C219.573 105.292 219.978 105.228 220.384 105.1C220.789 104.972 221.152 104.79 221.472 104.556C221.792 104.321 222.048 104.044 222.24 103.724C222.453 103.382 222.56 102.998 222.56 102.572C222.56 101.889 222.336 101.377 221.888 101.036C221.461 100.694 220.928 100.428 220.288 100.236C219.648 100.044 218.944 99.8837 218.176 99.7557C217.408 99.6064 216.704 99.3931 216.064 99.1157C215.424 98.8171 214.88 98.4117 214.432 97.8997C214.005 97.3877 213.792 96.6624 213.792 95.7237C213.792 94.9984 213.941 94.3691 214.24 93.8357C214.538 93.3024 214.922 92.8651 215.392 92.5237C215.882 92.1611 216.426 91.8944 217.024 91.7237C217.621 91.5531 218.229 91.4677 218.848 91.4677C220.064 91.4677 221.109 91.6917 221.984 92.1397C222.88 92.5877 223.573 93.2917 224.064 94.2517L222.336 95.2757C221.973 94.5931 221.514 94.0811 220.96 93.7397C220.426 93.3771 219.722 93.1957 218.848 93.1957C218.506 93.1957 218.144 93.2491 217.76 93.3557C217.397 93.4624 217.066 93.6117 216.768 93.8037C216.469 93.9957 216.213 94.2411 216 94.5397C215.808 94.8384 215.712 95.1797 215.712 95.5637C215.712 96.2251 215.925 96.7157 216.352 97.0357C216.8 97.3557 217.344 97.6117 217.984 97.8037C218.624 97.9744 219.328 98.1237 220.096 98.2517C220.864 98.3797 221.568 98.5931 222.208 98.8917C222.848 99.1691 223.381 99.5851 223.808 100.14C224.256 100.673 224.48 101.441 224.48 102.444C224.48 103.212 224.33 103.884 224.032 104.46C223.754 105.014 223.36 105.484 222.848 105.868C222.357 106.252 221.792 106.54 221.152 106.732C220.512 106.924 219.84 107.02 219.136 107.02C217.856 107.02 216.682 106.774 215.616 106.284C214.57 105.793 213.76 105.036 213.184 104.012L214.88 102.86ZM228.697 91.8517H230.617V94.4437H230.681C230.979 93.9317 231.353 93.4944 231.801 93.1317C232.249 92.7477 232.729 92.4384 233.241 92.2037C233.774 91.9477 234.329 91.7664 234.905 91.6597C235.481 91.5317 236.046 91.4677 236.601 91.4677C237.731 91.4677 238.766 91.6597 239.705 92.0437C240.665 92.4277 241.486 92.9717 242.169 93.6757C242.873 94.3584 243.417 95.1797 243.801 96.1397C244.185 97.0784 244.377 98.1131 244.377 99.2437C244.377 100.374 244.185 101.42 243.801 102.38C243.417 103.318 242.873 104.14 242.169 104.844C241.486 105.526 240.665 106.06 239.705 106.444C238.766 106.828 237.731 107.02 236.601 107.02C236.046 107.02 235.481 106.956 234.905 106.828C234.329 106.721 233.774 106.55 233.241 106.316C232.729 106.06 232.249 105.75 231.801 105.388C231.353 105.004 230.979 104.556 230.681 104.044H230.617V113.932H228.697V91.8517ZM230.425 99.2437C230.425 100.076 230.585 100.865 230.905 101.612C231.225 102.337 231.662 102.977 232.217 103.532C232.771 104.065 233.422 104.492 234.169 104.812C234.915 105.132 235.726 105.292 236.601 105.292C237.497 105.292 238.307 105.132 239.033 104.812C239.758 104.492 240.377 104.065 240.889 103.532C241.401 102.977 241.785 102.337 242.041 101.612C242.318 100.865 242.457 100.076 242.457 99.2437C242.457 98.4117 242.318 97.6331 242.041 96.9077C241.785 96.1611 241.401 95.5211 240.889 94.9877C240.377 94.4331 239.758 93.9957 239.033 93.6757C238.307 93.3557 237.497 93.1957 236.601 93.1957C235.726 93.1957 234.915 93.3557 234.169 93.6757C233.422 93.9957 232.771 94.4331 232.217 94.9877C231.662 95.5211 231.225 96.1611 230.905 96.9077C230.585 97.6331 230.425 98.4117 230.425 99.2437ZM248.483 99.2437C248.483 98.1131 248.675 97.0784 249.059 96.1397C249.443 95.1797 249.976 94.3584 250.659 93.6757C251.342 92.9717 252.163 92.4277 253.123 92.0437C254.083 91.6597 255.128 91.4677 256.259 91.4677C257.39 91.4677 258.424 91.6597 259.363 92.0437C260.323 92.4277 261.144 92.9717 261.827 93.6757C262.531 94.3584 263.075 95.1797 263.459 96.1397C263.843 97.0784 264.035 98.1131 264.035 99.2437C264.035 100.374 263.843 101.42 263.459 102.38C263.075 103.318 262.531 104.14 261.827 104.844C261.144 105.526 260.323 106.06 259.363 106.444C258.424 106.828 257.39 107.02 256.259 107.02C255.128 107.02 254.083 106.828 253.123 106.444C252.163 106.06 251.342 105.526 250.659 104.844C249.976 104.14 249.443 103.318 249.059 102.38C248.675 101.42 248.483 100.374 248.483 99.2437ZM250.403 99.2437C250.403 100.076 250.531 100.865 250.787 101.612C251.064 102.337 251.459 102.977 251.971 103.532C252.483 104.065 253.102 104.492 253.827 104.812C254.552 105.132 255.363 105.292 256.259 105.292C257.155 105.292 257.966 105.132 258.691 104.812C259.416 104.492 260.035 104.065 260.547 103.532C261.059 102.977 261.443 102.337 261.699 101.612C261.976 100.865 262.115 100.076 262.115 99.2437C262.115 98.4117 261.976 97.6331 261.699 96.9077C261.443 96.1611 261.059 95.5211 260.547 94.9877C260.035 94.4331 259.416 93.9957 258.691 93.6757C257.966 93.3557 257.155 93.1957 256.259 93.1957C255.363 93.1957 254.552 93.3557 253.827 93.6757C253.102 93.9957 252.483 94.4331 251.971 94.9877C251.459 95.5211 251.064 96.1611 250.787 96.9077C250.531 97.6331 250.403 98.4117 250.403 99.2437ZM268.955 96.0117C268.955 95.7344 268.944 95.4037 268.923 95.0197C268.902 94.6144 268.88 94.2091 268.859 93.8037C268.859 93.3984 268.848 93.0251 268.827 92.6837C268.806 92.3211 268.795 92.0437 268.795 91.8517H270.715C270.736 92.4064 270.747 92.9397 270.747 93.4517C270.768 93.9637 270.8 94.2944 270.843 94.4437C271.334 93.5691 271.963 92.8544 272.731 92.2997C273.499 91.7451 274.438 91.4677 275.547 91.4677C275.739 91.4677 275.92 91.4891 276.091 91.5317C276.283 91.5531 276.475 91.5851 276.667 91.6277L276.443 93.5157C276.187 93.4304 275.942 93.3877 275.707 93.3877C274.875 93.3877 274.15 93.5264 273.531 93.8037C272.934 94.0597 272.432 94.4224 272.027 94.8917C271.643 95.3611 271.355 95.9157 271.163 96.5557C270.971 97.1744 270.875 97.8464 270.875 98.5717V106.636H268.955V96.0117ZM287.483 93.5797H283.259V103.212C283.259 103.873 283.441 104.385 283.803 104.748C284.166 105.11 284.667 105.292 285.307 105.292C285.67 105.292 286.033 105.249 286.395 105.164C286.779 105.057 287.142 104.929 287.483 104.78L287.643 106.508C287.281 106.636 286.865 106.753 286.395 106.86C285.926 106.966 285.51 107.02 285.147 107.02C284.465 107.02 283.878 106.913 283.387 106.7C282.897 106.508 282.502 106.241 282.203 105.9C281.905 105.558 281.681 105.164 281.531 104.716C281.403 104.246 281.339 103.745 281.339 103.212V93.5797H278.139V91.8517H281.339V87.5957H283.259V91.8517H287.483V93.5797ZM304.603 103.852C303.857 104.982 302.929 105.793 301.819 106.284C300.731 106.774 299.526 107.02 298.203 107.02C297.073 107.02 296.049 106.828 295.131 106.444C294.214 106.06 293.425 105.526 292.763 104.844C292.102 104.14 291.59 103.318 291.227 102.38C290.886 101.42 290.715 100.364 290.715 99.2117C290.715 98.1024 290.897 97.0784 291.259 96.1397C291.622 95.2011 292.134 94.3904 292.795 93.7077C293.457 93.0037 294.235 92.4597 295.131 92.0757C296.027 91.6704 297.019 91.4677 298.107 91.4677C299.238 91.4677 300.23 91.6704 301.083 92.0757C301.958 92.4597 302.683 92.9824 303.259 93.6437C303.857 94.2837 304.305 95.0197 304.603 95.8517C304.902 96.6837 305.051 97.5264 305.051 98.3797V99.7237H292.635C292.635 100.129 292.71 100.652 292.859 101.292C293.03 101.91 293.329 102.518 293.755 103.116C294.182 103.713 294.747 104.225 295.451 104.652C296.177 105.078 297.105 105.292 298.235 105.292C299.217 105.292 300.166 105.057 301.083 104.588C302.001 104.118 302.705 103.478 303.195 102.668L304.603 103.852ZM303.131 97.9957C303.131 97.3344 302.993 96.7157 302.715 96.1397C302.459 95.5637 302.097 95.0624 301.627 94.6357C301.179 94.1877 300.635 93.8357 299.995 93.5797C299.377 93.3237 298.715 93.1957 298.011 93.1957C296.966 93.1957 296.091 93.4091 295.387 93.8357C294.705 94.2624 294.161 94.7531 293.755 95.3077C293.35 95.8624 293.062 96.4064 292.891 96.9397C292.721 97.4517 292.635 97.8037 292.635 97.9957H303.131ZM310.001 102.86C310.406 103.649 311.003 104.257 311.793 104.684C312.582 105.089 313.414 105.292 314.289 105.292C314.694 105.292 315.099 105.228 315.505 105.1C315.91 104.972 316.273 104.79 316.593 104.556C316.913 104.321 317.169 104.044 317.361 103.724C317.574 103.382 317.681 102.998 317.681 102.572C317.681 101.889 317.457 101.377 317.009 101.036C316.582 100.694 316.049 100.428 315.409 100.236C314.769 100.044 314.065 99.8837 313.297 99.7557C312.529 99.6064 311.825 99.3931 311.185 99.1157C310.545 98.8171 310.001 98.4117 309.553 97.8997C309.126 97.3877 308.913 96.6624 308.913 95.7237C308.913 94.9984 309.062 94.3691 309.361 93.8357C309.659 93.3024 310.043 92.8651 310.513 92.5237C311.003 92.1611 311.547 91.8944 312.145 91.7237C312.742 91.5531 313.35 91.4677 313.969 91.4677C315.185 91.4677 316.23 91.6917 317.105 92.1397C318.001 92.5877 318.694 93.2917 319.185 94.2517L317.457 95.2757C317.094 94.5931 316.635 94.0811 316.081 93.7397C315.547 93.3771 314.843 93.1957 313.969 93.1957C313.627 93.1957 313.265 93.2491 312.881 93.3557C312.518 93.4624 312.187 93.6117 311.889 93.8037C311.59 93.9957 311.334 94.2411 311.121 94.5397C310.929 94.8384 310.833 95.1797 310.833 95.5637C310.833 96.2251 311.046 96.7157 311.473 97.0357C311.921 97.3557 312.465 97.6117 313.105 97.8037C313.745 97.9744 314.449 98.1237 315.217 98.2517C315.985 98.3797 316.689 98.5931 317.329 98.8917C317.969 99.1691 318.502 99.5851 318.929 100.14C319.377 100.673 319.601 101.441 319.601 102.444C319.601 103.212 319.451 103.884 319.153 104.46C318.875 105.014 318.481 105.484 317.969 105.868C317.478 106.252 316.913 106.54 316.273 106.732C315.633 106.924 314.961 107.02 314.257 107.02C312.977 107.02 311.803 106.774 310.737 106.284C309.691 105.793 308.881 105.036 308.305 104.012L310.001 102.86Z" fill="white"/>
</svg>
