<svg width="320" height="40 " viewBox="0 0 612 240" fill="none" xmlns="http://www.w3.org/2000/svg">
<path d="M134.9 64.7C128.5 59.5 122.1 55.7 115.7 53.3C109.3 50.7 103.1 49.4 97.1 49.4C89.5 49.4 83.3 51.2 78.5 54.8C73.7 58.4 71.3 63.1 71.3 68.9C71.3 72.9 72.5 76.2 74.9 78.8C77.3 81.4 80.4 83.7 84.2 85.7C88.2 87.5 92.6 89.1 97.4 90.5C102.4 91.9 107.3 93.4 112.1 95C131.3 101.4 145.3 110 154.1 120.8C163.1 131.4 167.6 145.3 167.6 162.5C167.6 174.1 165.6 184.6 161.6 194C157.8 203.4 152.1 211.5 144.5 218.3C137.1 224.9 127.9 230 116.9 233.6C106.1 237.4 93.8 239.3 80 239.3C51.4 239.3 24.9 230.8 0.500001 213.8L25.7 166.4C34.5 174.2 43.2 180 51.8 183.8C60.4 187.6 68.9 189.5 77.3 189.5C86.9 189.5 94 187.3 98.6 182.9C103.4 178.5 105.8 173.5 105.8 167.9C105.8 164.5 105.2 161.6 104 159.2C102.8 156.6 100.8 154.3 98 152.3C95.2 150.1 91.5 148.1 86.9 146.3C82.5 144.5 77.1 142.5 70.7 140.3C63.1 137.9 55.6 135.3 48.2 132.5C41 129.5 34.5 125.6 28.7 120.8C23.1 116 18.5 110 14.9 102.8C11.5 95.4 9.8 86.1 9.8 74.9C9.8 63.7 11.6 53.6 15.2 44.6C19 35.4 24.2 27.6 30.8 21.2C37.6 14.6 45.8 9.49999 55.4 5.89999C65.2 2.29999 76.1 0.499989 88.1 0.499989C99.3 0.499989 111 2.09999 123.2 5.29998C135.4 8.29999 147.1 12.8 158.3 18.8L134.9 64.7ZM255.945 119.9C255.945 128.9 257.645 137.2 261.045 144.8C264.445 152.4 269.045 159 274.845 164.6C280.645 170.2 287.345 174.6 294.945 177.8C302.745 180.8 310.945 182.3 319.545 182.3C328.145 182.3 336.245 180.8 343.845 177.8C351.645 174.6 358.445 170.2 364.245 164.6C370.245 159 374.945 152.4 378.345 144.8C381.745 137.2 383.445 128.9 383.445 119.9C383.445 110.9 381.745 102.6 378.345 95C374.945 87.4 370.245 80.8 364.245 75.2C358.445 69.6 351.645 65.3 343.845 62.3C336.245 59.1 328.145 57.5 319.545 57.5C310.945 57.5 302.745 59.1 294.945 62.3C287.345 65.3 280.645 69.6 274.845 75.2C269.045 80.8 264.445 87.4 261.045 95C257.645 102.6 255.945 110.9 255.945 119.9ZM194.445 119.9C194.445 103.1 197.545 87.5 203.745 73.1C209.945 58.5 218.545 45.8 229.545 35C240.545 24.2 253.645 15.8 268.845 9.79999C284.245 3.59999 301.145 0.499989 319.545 0.499989C337.745 0.499989 354.545 3.59999 369.945 9.79999C385.345 15.8 398.545 24.2 409.545 35C420.745 45.8 429.445 58.5 435.645 73.1C441.845 87.5 444.945 103.1 444.945 119.9C444.945 136.7 441.845 152.4 435.645 167C429.445 181.4 420.745 194 409.545 204.8C398.545 215.6 385.345 224.1 369.945 230.3C354.545 236.3 337.745 239.3 319.545 239.3C301.145 239.3 284.245 236.3 268.845 230.3C253.645 224.1 240.545 215.6 229.545 204.8C218.545 194 209.945 181.4 203.745 167C197.545 152.4 194.445 136.7 194.445 119.9ZM540.887 6.8V183.2H611.387V233H482.087V6.8H540.887Z" fill="white"/>
</svg>
